# xmcd
#
# Track frame offsets:
#	150
#	10995
#	24290
#	38525
#	49462
#	61335
#	73002
#	83265
#	96162
#	108800
#	120492
#	133157
#	145440
#	158637
#	170687
#	184937
#	198595
#	209645
#	224315
#	235610
#
# Disc length: 3326 seconds
#
# Revision: 0
# Processed by: cddbd v1.5.1PL0 Copyright (c) Steve Scherf et al.
# Submitted via: dBpowerAMP V4.0
#
DISCID=180cfc14
DTITLE=Larks - The Larks - My Reverie
DYEAR=1900
DGENRE=Oldies
TTITLE0=My Reverie
TTITLE1=Lucy Brown
TTITLE2=I Live True To You
TTITLE3=The World Is Waiting For The Sunrise
TTITLE4=If You Were The Only Girl In The World
TTITLE5=Coffee, Cigarettes and Tears
TTITLE6=Jam Session
TTITLE7=Rockin' In The Rocket Room
TTITLE8=Honey From The Bee
TTITLE9=Os-ca- lu-ski-o
TTITLE10=Forget It
TTITLE11=Little Side Car
TTITLE12=Eyesight To The Blind
TTITLE13=Christmas To New Year's
TTITLE14=Stolen Love
TTITLE15=Let's Say A Prayer
TTITLE16=Ooh....It Feels So Good
TTITLE17=It's Breaking My Heart
TTITLE18=How Long Must I WaitFor You
TTITLE19=If It's A Crime
EXTD=
EXTT0=
EXTT1=
EXTT2=
EXTT3=
EXTT4=
EXTT5=
EXTT6=
EXTT7=
EXTT8=
EXTT9=
EXTT10=
EXTT11=
EXTT12=
EXTT13=
EXTT14=
EXTT15=
EXTT16=
EXTT17=
EXTT18=
EXTT19=
PLAYORDER=
